HIERARCHY
ROOT pelvis
{
	OFFSET 0.003123 -0.351407 0.012037
	CHANNELS 6 Xposition Yposition Zposition Zrotation Yrotation Xrotation 
	JOINT left_hip
	{
		OFFSET 0.058189 -0.092763 -0.026001
		CHANNELS 3 Zrotation Yrotation Xrotation
		JOINT left_knee
		{
			OFFSET 0.054695 -0.378753 -0.009396
			CHANNELS 3 Zrotation Yrotation Xrotation
			JOINT left_ankle
			{
				OFFSET -0.043453 -0.403059 -0.031876
				CHANNELS 3 Zrotation Yrotation Xrotation
				JOINT left_foot
				{
					OFFSET 0.047257 -0.057997 0.118216
					CHANNELS 3 Zrotation Yrotation Xrotation
					End Site
					{
						OFFSET 0.000000 0.000000 0.000000
					}
				}
			}
		}
	}
	JOINT right_hip
	{
		OFFSET -0.063267 -0.103908 -0.021250
		CHANNELS 3 Zrotation Yrotation Xrotation
		JOINT right_knee
		{
			OFFSET -0.044210 -0.362380 -0.016824
			CHANNELS 3 Zrotation Yrotation Xrotation
			JOINT right_ankle
			{
				OFFSET 0.015417 -0.410728 -0.020192
				CHANNELS 3 Zrotation Yrotation Xrotation
				JOINT right_foot
				{
					OFFSET -0.038812 -0.058328 0.119049
					CHANNELS 3 Zrotation Yrotation Xrotation
					End Site
					{
						OFFSET 0.000000 0.000000 0.000000
					}
				}
			}
		}
	}
	JOINT spine_1
	{
		OFFSET -0.002763 0.109891 -0.027618
		CHANNELS 3 Zrotation Yrotation Xrotation
		JOINT spine_2
		{
			OFFSET 0.009448 0.131853 -0.005940
			CHANNELS 3 Zrotation Yrotation Xrotation
			JOINT spine_3
			{
				OFFSET -0.011330 0.052235 0.028447
				CHANNELS 3 Zrotation Yrotation Xrotation
				JOINT neck
				{
					OFFSET -0.012164 0.165167 -0.031615
					CHANNELS 3 Zrotation Yrotation Xrotation
					JOINT head
					{
						OFFSET 0.024783 0.160452 0.020737
						CHANNELS 3 Zrotation Yrotation Xrotation
						End Site
						{
							OFFSET 0.000000 0.000000 0.000000
						}
					}
				}
				JOINT left_collar
				{
					OFFSET 0.046364 0.084944 -0.007220
					CHANNELS 3 Zrotation Yrotation Xrotation
					JOINT left_shoulder
					{
						OFFSET 0.119239 0.057728 -0.015461
						CHANNELS 3 Zrotation Yrotation Xrotation
						JOINT left_elbow
						{
							OFFSET 0.254123 -0.072151 -0.042459
							CHANNELS 3 Zrotation Yrotation Xrotation
							JOINT left_wrist
							{
								OFFSET 0.251987 0.023221 -0.002472
								CHANNELS 3 Zrotation Yrotation Xrotation
								JOINT left_index_1
								{
									OFFSET 0.101902 -0.008688 0.019351
									CHANNELS 3 Zrotation Yrotation Xrotation
									JOINT left_index_2
									{
										OFFSET 0.030149 -0.011154 0.001151
										CHANNELS 3 Zrotation Yrotation Xrotation
										JOINT left_index_3
										{
											OFFSET 0.006504 -0.021577 -0.002433
											CHANNELS 3 Zrotation Yrotation Xrotation
											End Site
											{
												OFFSET 0.000000 0.000000 0.000000
											}
										}
									}
								}
								JOINT left_middle_1
								{
									OFFSET 0.109398 -0.006328 -0.003981
									CHANNELS 3 Zrotation Yrotation Xrotation
									JOINT left_middle_2
									{
										OFFSET 0.026472 -0.015218 -0.004641
										CHANNELS 3 Zrotation Yrotation Xrotation
										JOINT left_middle_3
										{
											OFFSET 0.005022 -0.023347 -0.001911
											CHANNELS 3 Zrotation Yrotation Xrotation
											End Site
											{
												OFFSET 0.000000 0.000000 0.000000
											}
										}
									}
								}
								JOINT left_pinky_1
								{
									OFFSET 0.084047 -0.014539 -0.043750
									CHANNELS 3 Zrotation Yrotation Xrotation
									JOINT left_pinky_2
									{
										OFFSET 0.012124 -0.014448 -0.005375
										CHANNELS 3 Zrotation Yrotation Xrotation
										JOINT left_pinky_3
										{
											OFFSET 0.003798 -0.018853 0.000167
											CHANNELS 3 Zrotation Yrotation Xrotation
											End Site
											{
												OFFSET 0.000000 0.000000 0.000000
											}
										}
									}
								}
								JOINT left_ring_1
								{
									OFFSET 0.097444 -0.009268 -0.027345
									CHANNELS 3 Zrotation Yrotation Xrotation
									JOINT left_ring_2
									{
										OFFSET 0.023561 -0.016057 -0.001895
										CHANNELS 3 Zrotation Yrotation Xrotation
										JOINT left_ring_3
										{
											OFFSET 0.004257 -0.023548 0.000814
											CHANNELS 3 Zrotation Yrotation Xrotation
											End Site
											{
												OFFSET 0.000000 0.000000 0.000000
											}
										}
									}
								}
								JOINT left_thumb_1
								{
									OFFSET 0.040636 -0.017977 0.025611
									CHANNELS 3 Zrotation Yrotation Xrotation
									JOINT left_thumb_2
									{
										OFFSET 0.021637 -0.017639 0.011623
										CHANNELS 3 Zrotation Yrotation Xrotation
										JOINT left_thumb_3
										{
											OFFSET 0.024002 -0.008356 0.006548
											CHANNELS 3 Zrotation Yrotation Xrotation
											End Site
											{
												OFFSET 0.000000 0.000000 0.000000
											}
										}
									}
								}
							}
						}
					}
				}
				JOINT right_collar
				{
					OFFSET -0.047695 0.084339 -0.013400
					CHANNELS 3 Zrotation Yrotation Xrotation
					JOINT right_shoulder
					{
						OFFSET -0.102578 0.053524 -0.012669
						CHANNELS 3 Zrotation Yrotation Xrotation
						JOINT right_elbow
						{
							OFFSET -0.271150 -0.036492 -0.026467
							CHANNELS 3 Zrotation Yrotation Xrotation
							JOINT right_wrist
							{
								OFFSET -0.249267 -0.004533 -0.015325
								CHANNELS 3 Zrotation Yrotation Xrotation
								JOINT right_index_1
								{
									OFFSET -0.099881 -0.011783 0.019600
									CHANNELS 3 Zrotation Yrotation Xrotation
									JOINT right_index_2
									{
										OFFSET -0.030148 -0.011154 0.001151
										CHANNELS 3 Zrotation Yrotation Xrotation
										JOINT right_index_3
										{
											OFFSET -0.006505 -0.021577 -0.002432
											CHANNELS 3 Zrotation Yrotation Xrotation
											End Site
											{
												OFFSET 0.000000 0.000000 0.000000
											}
										}
									}
								}
								JOINT right_middle_1
								{
									OFFSET -0.107376 -0.009422 -0.003734
									CHANNELS 3 Zrotation Yrotation Xrotation
									JOINT right_middle_2
									{
										OFFSET -0.026472 -0.015218 -0.004641
										CHANNELS 3 Zrotation Yrotation Xrotation
										JOINT right_middle_3
										{
											OFFSET -0.005022 -0.023347 -0.001911
											CHANNELS 3 Zrotation Yrotation Xrotation
											End Site
											{
												OFFSET 0.000000 0.000000 0.000000
											}
										}
									}
								}
								JOINT right_pinky_1
								{
									OFFSET -0.082027 -0.017634 -0.043503
									CHANNELS 3 Zrotation Yrotation Xrotation
									JOINT right_pinky_2
									{
										OFFSET -0.012123 -0.014448 -0.005374
										CHANNELS 3 Zrotation Yrotation Xrotation
										JOINT right_pinky_3
										{
											OFFSET -0.003798 -0.018852 0.000167
											CHANNELS 3 Zrotation Yrotation Xrotation
											End Site
											{
												OFFSET 0.000000 0.000000 0.000000
											}
										}
									}
								}
								JOINT right_ring_1
								{
									OFFSET -0.095423 -0.012362 -0.027099
									CHANNELS 3 Zrotation Yrotation Xrotation
									JOINT right_ring_2
									{
										OFFSET -0.023561 -0.016057 -0.001895
										CHANNELS 3 Zrotation Yrotation Xrotation
										JOINT right_ring_3
										{
											OFFSET -0.004257 -0.023548 0.000816
											CHANNELS 3 Zrotation Yrotation Xrotation
											End Site
											{
												OFFSET 0.000000 0.000000 0.000000
											}
										}
									}
								}
								JOINT right_thumb_1
								{
									OFFSET -0.038613 -0.021074 0.025861
									CHANNELS 3 Zrotation Yrotation Xrotation
									JOINT right_thumb_2
									{
										OFFSET -0.021636 -0.017639 0.011623
										CHANNELS 3 Zrotation Yrotation Xrotation
										JOINT right_thumb_3
										{
											OFFSET -0.024004 -0.008353 0.006547
											CHANNELS 3 Zrotation Yrotation Xrotation
											End Site
											{
												OFFSET 0.000000 0.000000 0.000000
											}
										}
									}
								}
							}
						}
					}
				}
			}
		}
	}
}
MOTION
Frames: 7
Frame Time: 0.050000
-0.008689 0.921358 -0.029770 -1.311984 -4.824020 -8.191011 7.360281 0.888547 10.042400 -4.568643 0.347675 1.284200 2.862781 2.074759 -5.382477 0.000000 0.000000 0.000000 -1.732583 -0.745220 8.161906 3.132845 -0.031569 7.636314 -5.535315 -4.537066 -10.604359 0.000000 0.000000 0.000000 -1.641188 -0.565756 7.457851 -9.281140 -0.252559 -17.068663 7.320744 0.159782 29.015410 5.948084 -0.811012 -1.657378 0.000000 0.000000 0.000000 -3.780157 -7.583507 3.798527 -56.764565 -16.898131 -6.055095 -15.997148 -18.679737 4.419977 -1.883196 0.315132 20.767458 -28.619638 12.606174 1.184846 -24.326325 12.951614 10.165201 0.000000 0.000000 0.000000 -26.179459 -1.168549 -5.985953 -42.876842 8.999060 0.929950 0.000000 0.000000 0.000000 -0.469431 -32.649429 -26.544999 -55.693448 -12.533765 -15.880621 0.000000 0.000000 0.000000 -25.423591 -9.633328 -6.540139 -52.481867 -1.517912 -6.460692 0.000000 0.000000 0.000000 3.182220 32.860215 33.104851 10.951052 -14.249510 -9.633579 0.000000 0.000000 0.000000 -11.347615 0.412128 1.416820 19.663872 44.455490 -1.695642 -107.872049 35.434940 -42.930542 -14.652780 -0.667741 -30.059744 6.115693 -2.451506 0.286989 89.982051 -1.750136 -5.734091 0.000000 0.000000 0.000000 22.770351 24.831149 -8.163762 54.124950 28.143821 -34.591127 0.000000 0.000000 0.000000 -0.049795 45.360850 -60.024623 2.569154 2.502835 -7.617767 0.000000 0.000000 0.000000 24.761567 43.512241 -15.592698 15.790506 19.597768 -40.055805 0.000000 0.000000 0.000000 -42.453345 -36.925332 18.432209 32.216437 26.218530 1.021962 0.000000 0.000000 0.000000 
-0.007982 0.921680 -0.031090 -0.879575 -3.867268 -7.945054 6.987962 0.806980 9.141376 -4.736170 0.310980 1.912870 2.566879 1.387324 -5.295737 0.000000 0.000000 0.000000 -2.626231 -0.630694 7.877558 4.007602 -0.136817 7.596455 -5.715244 -5.345063 -10.347679 0.000000 0.000000 0.000000 -2.248644 -0.556030 7.525886 -9.364279 0.108667 -16.086499 6.855376 -1.463532 27.642340 5.605574 -0.554677 -2.650867 0.000000 0.000000 0.000000 -3.993107 -5.749081 2.860007 -56.737169 -15.476455 -6.133790 -16.810417 -20.088537 4.947880 -0.951629 0.515624 22.084321 -23.179306 8.421253 1.197805 -28.519612 14.843310 10.092989 0.000000 0.000000 0.000000 -24.307681 -3.454463 -6.416300 -42.324530 8.328957 -0.387508 0.000000 0.000000 0.000000 1.190848 -26.305493 -20.448955 -52.253057 -16.065841 -26.521039 0.000000 0.000000 0.000000 -20.934146 -10.698017 -6.667160 -53.533972 -2.719816 -9.366386 0.000000 0.000000 0.000000 3.031396 33.206920 33.140943 13.600852 -16.812497 -12.235100 0.000000 0.000000 0.000000 -10.956813 0.685423 1.602779 18.524094 45.583758 -2.233280 -106.059381 35.375225 -42.054991 -14.911783 -0.509244 -30.767461 7.016176 -1.804308 0.233353 87.928005 0.615008 -6.523658 0.000000 0.000000 0.000000 29.690635 25.974394 -6.612194 53.701753 27.002586 -34.638097 0.000000 0.000000 0.000000 2.430614 46.944755 -61.489933 9.013584 4.338812 -10.881244 0.000000 0.000000 0.000000 31.883410 46.881598 -13.228130 15.466522 19.628285 -41.792757 0.000000 0.000000 0.000000 -37.800672 -37.200374 16.130239 29.907640 27.160626 -2.305565 0.000000 0.000000 0.000000 
-0.006569 0.921680 -0.029770 -1.173732 -3.334354 -7.909629 7.240808 0.763636 9.084849 -4.696481 0.293907 1.984044 2.478909 0.939058 -5.543466 0.000000 0.000000 0.000000 -2.345427 -0.742883 8.640796 3.981807 -0.148934 6.460629 -5.693945 -5.673002 -9.946033 0.000000 0.000000 0.000000 -2.019486 -0.534528 7.151717 -9.180194 0.107344 -15.929423 6.918277 -0.606020 27.413489 5.800168 -0.853253 -1.200972 0.000000 0.000000 0.000000 -3.720188 -7.510996 3.739884 -56.342944 -14.909179 -6.466763 -17.115092 -20.700224 5.148512 -0.800763 0.117323 19.999543 -25.586439 9.007587 1.026120 -21.607029 10.909632 9.186819 0.000000 0.000000 0.000000 -23.266795 -1.671582 -5.559579 -37.460491 4.438828 -4.433633 0.000000 0.000000 0.000000 -0.521735 -24.305259 -20.455275 -49.718136 -13.016229 -23.483963 0.000000 0.000000 0.000000 -22.318102 -9.459602 -6.365008 -48.351330 -2.601871 -8.902434 0.000000 0.000000 0.000000 3.371067 31.040486 30.797427 4.872057 -13.725348 -6.582567 0.000000 0.000000 0.000000 -10.909784 -0.218660 1.121387 20.348305 44.639332 -1.382434 -106.066903 36.154749 -42.518252 -14.437540 -1.167735 -32.811393 5.226307 -1.814230 0.162681 90.865861 -1.552245 -6.216418 0.000000 0.000000 0.000000 34.037726 28.462174 -5.604247 48.971808 25.171709 -34.915766 0.000000 0.000000 0.000000 2.067490 47.707338 -62.305619 4.406601 3.411107 -9.667513 0.000000 0.000000 0.000000 26.521125 48.353487 -16.630056 18.185403 20.565093 -39.463160 0.000000 0.000000 0.000000 -43.234414 -38.090163 16.743437 40.348671 24.847557 3.063643 0.000000 0.000000 0.000000 
-0.006333 0.921680 -0.029770 -1.538412 -3.787615 -8.244442 7.625069 0.769289 9.306556 -4.725332 0.275304 2.425637 2.699029 1.312365 -5.751688 0.000000 0.000000 0.000000 -1.879866 -0.821277 8.952600 3.722934 -0.117719 6.532247 -5.551807 -5.242560 -9.947567 0.000000 0.000000 0.000000 -1.432297 -0.570723 7.656805 -9.407164 0.160355 -15.982992 7.104884 -0.499348 27.336791 6.060037 -0.756776 -1.913026 0.000000 0.000000 0.000000 -4.041839 -7.359558 3.670376 -56.633605 -15.679053 -6.268104 -16.165221 -18.717746 4.451900 -0.896647 -1.347742 19.721394 -26.639584 12.047871 1.478493 -26.963807 13.546666 10.054118 0.000000 0.000000 0.000000 -31.214496 3.535270 -5.889901 -39.681396 3.813475 -5.207804 0.000000 0.000000 0.000000 -10.614461 -30.019279 -23.916064 -47.482631 -10.504423 -18.518076 0.000000 0.000000 0.000000 -29.764678 -4.810625 -5.595230 -47.437857 -3.054501 -9.129241 0.000000 0.000000 0.000000 3.543970 33.634333 33.741936 9.483822 -14.628374 -9.050546 0.000000 0.000000 0.000000 -10.848737 -0.033877 1.209804 20.529594 44.821653 -1.367373 -106.258982 36.430529 -43.119133 -14.923719 -1.729661 -31.665911 9.738763 -2.729232 0.335276 82.673985 0.656362 -4.602095 0.000000 0.000000 0.000000 31.207951 25.344006 -6.037611 48.498643 23.916303 -32.119867 0.000000 0.000000 0.000000 5.920365 47.876012 -59.425213 7.008169 2.156692 -5.603571 0.000000 0.000000 0.000000 31.650456 45.729472 -12.782613 15.900032 18.760345 -38.177539 0.000000 0.000000 0.000000 -37.483933 -37.157917 15.663044 27.769370 22.935030 -2.367658 0.000000 0.000000 0.000000 
-0.006922 0.921680 -0.027130 -1.240188 -4.311091 -8.024398 7.212691 0.810845 9.245430 -4.634277 0.265614 2.533745 2.871893 1.832705 -5.664243 0.000000 0.000000 0.000000 -2.335191 -0.712012 8.471711 3.897019 -0.123162 7.133246 -5.506874 -4.834906 -10.232344 0.000000 0.000000 0.000000 -1.442577 -0.503336 6.463356 -9.578663 -0.000388 -16.673848 7.269054 -0.223481 29.274086 5.971912 -0.703446 -2.242777 0.000000 0.000000 0.000000 -4.838528 -6.342841 3.142794 -56.163266 -16.213176 -6.265838 -15.561820 -18.872264 4.402599 -2.398068 1.171179 21.874393 -24.440885 9.743806 1.328169 -27.063228 12.357645 7.466292 0.000000 0.000000 0.000000 -23.952850 -1.667484 -5.766868 -45.354327 6.228140 -4.454021 0.000000 0.000000 0.000000 -7.944018 -30.104438 -23.920194 -47.370246 -9.949127 -18.245410 0.000000 0.000000 0.000000 -24.352713 -11.086141 -7.063664 -49.677352 -1.243257 -7.011225 0.000000 0.000000 0.000000 1.363418 32.200111 32.043142 10.728523 -14.011748 -9.468323 0.000000 0.000000 0.000000 -10.684344 1.063623 1.613228 20.424062 45.302394 -1.458919 -107.281936 36.280478 -43.589057 -15.364870 -2.523454 -30.920683 12.229517 -3.581522 0.328749 89.170350 -3.510900 -4.686901 0.000000 0.000000 0.000000 35.353238 26.896754 -5.271788 52.091476 24.736323 -33.655928 0.000000 0.000000 0.000000 1.288745 46.967694 -62.160495 6.780560 3.216476 -8.604254 0.000000 0.000000 0.000000 28.758878 46.020344 -14.691035 19.748177 20.182079 -36.976486 0.000000 0.000000 0.000000 -42.383495 -38.506937 19.478364 35.419993 29.718486 1.174218 0.000000 0.000000 0.000000 
-0.006569 0.921680 -0.027130 -0.641520 -4.280879 -8.435468 6.454344 0.921020 9.695589 -4.458571 0.250289 2.457083 2.820043 1.765830 -5.593756 0.000000 0.000000 0.000000 -3.386584 -0.594055 8.517874 4.510159 -0.184835 7.787054 -5.568694 -4.816750 -10.473519 0.000000 0.000000 0.000000 -2.042211 -0.579931 7.864706 -9.978707 -0.030266 -17.312180 7.595785 -0.209821 27.841640 5.740205 -0.729112 -1.838898 0.000000 0.000000 0.000000 -5.022519 -5.646576 2.750352 -55.845265 -14.087571 -6.674027 -17.013991 -20.335290 5.042176 -1.339408 1.818900 20.774529 -23.478257 8.534043 1.243157 -22.878019 14.569013 13.056312 0.000000 0.000000 0.000000 -24.052870 0.287324 -5.107036 -42.478495 7.007105 -1.960974 0.000000 0.000000 0.000000 -1.534120 -23.802191 -18.636238 -56.530732 -14.122874 -21.325710 0.000000 0.000000 0.000000 -23.433592 -8.259265 -5.991270 -51.082931 -3.432658 -10.434109 0.000000 0.000000 0.000000 2.003376 33.962961 33.670898 8.936744 -16.035625 -9.441738 0.000000 0.000000 0.000000 -10.151484 0.642682 1.410311 21.201544 46.492177 -1.151330 -108.315553 38.013896 -46.780308 -16.077789 -1.705137 -29.904204 16.003568 -4.345897 0.112931 90.022742 -6.888226 -3.158458 0.000000 0.000000 0.000000 45.361644 28.381242 -3.209562 50.237593 20.317665 -29.986234 0.000000 0.000000 0.000000 8.579510 53.830997 -66.370399 5.616004 1.638970 -4.473548 0.000000 0.000000 0.000000 44.679992 54.449237 -8.876713 15.408331 16.256375 -36.347097 0.000000 0.000000 0.000000 -41.491946 -40.354380 20.076105 39.081599 31.842564 0.043811 0.000000 0.000000 0.000000 
-0.005156 0.921922 -0.025810 -0.849643 -3.750034 -7.953401 6.764729 0.854008 9.494618 -4.725216 0.309530 1.892187 2.567239 1.241904 -5.466346 0.000000 0.000000 0.000000 -3.108403 -0.652176 8.716873 4.368942 -0.180786 6.754195 -5.563479 -5.231224 -10.012468 0.000000 0.000000 0.000000 -1.602888 -0.518388 6.816094 -9.858476 0.042368 -16.989254 7.155618 -0.564736 28.958370 5.897807 -0.745841 -1.945771 0.000000 0.000000 0.000000 -4.862456 -5.931583 2.913026 -55.955673 -13.767210 -6.791359 -16.300099 -21.339166 5.184711 -1.739898 1.353717 19.765918 -23.268586 8.436472 1.278612 -19.836343 9.088948 7.271572 0.000000 0.000000 0.000000 -23.552707 -0.315392 -5.151436 -39.112202 3.427652 -6.375957 0.000000 0.000000 0.000000 0.002810 -22.668992 -19.085901 -53.287324 -12.840775 -21.500019 0.000000 0.000000 0.000000 -22.415090 -8.209664 -5.945329 -46.989416 -3.500979 -10.801048 0.000000 0.000000 0.000000 0.785083 32.525638 31.878107 11.191265 -15.170491 -10.261138 0.000000 0.000000 0.000000 -9.964003 0.366608 1.263243 21.793519 47.221424 -0.951638 -110.222581 38.649940 -49.083068 -17.604997 -1.395511 -31.139763 19.705781 -10.594109 -1.062576 91.229101 -10.165497 -2.389866 0.000000 0.000000 0.000000 53.986551 28.760452 -0.903369 47.798122 19.113526 -31.255688 0.000000 0.000000 0.000000 16.254832 60.151306 -67.081088 -3.762948 -0.512742 2.293904 0.000000 0.000000 0.000000 53.359082 57.176368 -4.280722 9.292037 12.264154 -33.686700 0.000000 0.000000 0.000000 -47.752777 -45.857827 22.013951 65.316050 39.985263 4.735595 0.000000 0.000000 0.000000 
